# xmcd
# Track frame offsets:
# 150
# 12658
# 23328
# 35463
# 49888
# 60565
# 72783
# 85868
# 96680
# 109585
# 119455
# 129038
# 139285
# 151248
# 162740
# 176513
# 186720
# 200300
# 210130
# 223483
# 233263
# 245105
# 256095
#
# Disc length: 3556 seconds
# Revision: 4
# Processed by: cddbd v1.4PL0 Copyright (c) Steve Scherf et al.
# Submitted via: VisiTrax 2.9.5.180 - For more info visit www.synapsa.com
#
DISCID=460de217
DTITLE=Various Artist - COUNTRY GIANTS  -Vol 1- 23 Track Collection
DYEAR=1900
DGENRE=
TTITLE0=Kenny Rogers - Reuben James
TTITLE1=Dolly Parton - Honky Tonk Angels
TTITLE2=Faron Young - Sweet Dreams
TTITLE3=Patsy Cline - Then You'll Know
TTITLE4=Billie Jo Spears - I'm  So Lonesome I Could Cry
TTITLE5=Willie Nelson - I Can't Find The Time
TTITLE6=Kenny Rogers - Ruby, Don't Take Your Love To Town
TTITLE7=Stonewall Jackson - Things To Talk About
TTITLE8=Johnny Paycheck - Talk About Me
TTITLE9=Willie Nelson - I Didn't Sleep A Wink
TTITLE10=Ned Miller - From A Jack To A King
TTITLE11=Waylon Jennings - White Lightning
TTITLE12=Billie Jo Spears - Look What They've Done To My Song
TTITLE13=Dolly Parton - Makin' Believe
TTITLE14=Willie Nelson - Home Is Where You're Happy
TTITLE15=Ferlin Husky - Wings Of A Dove
TTITLE16=Kenny Rogers - Shine On Ruby Mountain
TTITLE17=Donna Fargo - Sticks And Stones
TTITLE18=Lynn Anderson - Rose Garden
TTITLE19=Patsy Cline - Turn The Cards Slowly
TTITLE20=Johnny Lee - Ramblin' Rose
TTITLE21=Faron Young - Country Girl
TTITLE22=Patsy Cline - The Heart You Break May Be Your Own
EXTD=TRING INTERNATIONAL PLC\nGRF 003
EXTT0=Kenny Rogers
EXTT1=Dolly Parton
EXTT2=Faron Young
EXTT3=Patsy Cline
EXTT4=Billie Jo Spears
EXTT5=Willie Nelson
EXTT6=Kenny Rogers
EXTT7=Stonewall Jackson
EXTT8=Johnny Paycheck
EXTT9=Willie Nelson
EXTT10=Ned Miller
EXTT11=Waylon Jennings
EXTT12=Billie Jo Spears
EXTT13=Dolly Parton
EXTT14=Willie Nelson
EXTT15=Ferlin Husky
EXTT16=Kenny Rogers
EXTT17=Donna Fargo
EXTT18=Lynn Anderson
EXTT19=Patsy Cline
EXTT20=Johnny Lee
EXTT21=Faron Young
EXTT22=Patsy Cline
PLAYORDER=
